<svg width="116" height="110" viewBox="0 0 116 110" fill="none" xmlns="http://www.w3.org/2000/svg">
<path fill-rule="evenodd" clip-rule="evenodd" d="M99.0857 77.9389C97.4467 70.9349 91.9906 67.6513 85.1459 66.4396C83.5724 66.1612 81.9342 65.9895 80.2491 65.9103C79.0048 65.8703 77.972 65.6123 77.0959 65.195C72.1796 74.5628 49.7039 73.9009 45.9524 65.195V65.1292C45.0443 65.5856 43.9646 65.8703 42.6619 65.9103C41.0229 65.9895 39.4298 66.1478 37.9032 66.4129C31.2488 67.5588 25.8918 70.6431 24.0227 77.164C26.9114 79.9512 50.3686 101.209 50.5526 102.373H99.8026V90.4576C99.8026 89.1864 100.375 88.0405 101.277 87.2728L99.0857 77.9389Z" fill="#0B6BEF"/>
<path d="M16.355 65.5909C15.8957 65.5909 15.4372 65.4121 15.0921 65.0554C14.4115 64.3544 14.4257 63.2317 15.1239 62.5484C16.7878 60.9186 16.4311 60.2167 15.57 58.5229C14.585 56.5844 13.0955 53.6558 16.917 50.0412C17.6259 49.3705 18.7427 49.4034 19.4109 50.1168C20.0782 50.8303 20.0446 51.9521 19.3348 52.6229C17.4427 54.4128 17.8144 55.1441 18.7126 56.9091C19.6685 58.7907 21.1137 61.633 17.5869 65.0874C17.2435 65.4237 16.7993 65.5909 16.355 65.5909Z" fill="#D7D2D2"/>
<path d="M26.1228 56.0845C25.6635 56.0845 25.2042 55.9057 24.859 55.5489C24.1785 54.8479 24.1926 53.7252 24.8909 53.042C26.5547 51.4122 26.1972 50.712 25.3343 49.0173C24.3475 47.0797 22.8554 44.1502 26.6769 40.5348C27.3866 39.864 28.5026 39.8978 29.1708 40.6113C29.839 41.3239 29.8054 42.4457 29.0956 43.1173C27.2043 44.9064 27.5769 45.6367 28.4761 47.4018C29.4337 49.2833 30.8824 52.1257 27.3539 55.5818C27.0105 55.9172 26.5662 56.0845 26.1228 56.0845Z" fill="#D7D2D2"/>
<path d="M107.174 88.634C106.199 88.634 105.41 87.8404 105.41 86.8618V57.9126C105.41 56.934 106.199 56.1405 107.174 56.1405C108.148 56.1405 108.939 56.934 108.939 57.9126V86.8609C108.939 87.8404 108.148 88.634 107.174 88.634Z" fill="#666666"/>
<path fill-rule="evenodd" clip-rule="evenodd" d="M42.6619 65.9103C41.0229 65.9895 39.4298 66.1478 37.9032 66.4129V77.164L41.4769 80.388L45.9524 77.164V65.1292C45.0443 65.5856 43.9646 65.8703 42.6619 65.9103Z" fill="#DDEBFD"/>
<path fill-rule="evenodd" clip-rule="evenodd" d="M37.5607 99.4411H47.1436C48.8614 99.4411 50.296 100.719 50.5526 102.373H91.5366L88.3965 84.1084C88.101 82.3345 86.9354 80.832 85.145 80.832V66.4396C83.5724 66.1612 81.9333 65.9895 80.2483 65.9103C79.0048 65.8703 77.9711 65.6123 77.0959 65.1951V80.832H52.4882C52.5404 81.2287 40.4308 98.2561 37.5607 99.4411Z" fill="#DDEBFD"/>
<path fill-rule="evenodd" clip-rule="evenodd" d="M73.2461 61.0245L62.0374 57.4696L49.6968 60.9578L49.6641 61.0174C48.8419 62.7718 47.6764 64.2548 45.9524 65.1284V65.1951C49.7039 73.9 72.1796 74.5628 77.0959 65.1951C75.2931 64.3339 74.1479 62.7851 73.2461 61.0245Z" fill="#F4BDAE"/>
<path fill-rule="evenodd" clip-rule="evenodd" d="M74.9311 27.1157C66.0067 25.7857 57.0291 25.759 47.9994 27.1157C45.393 27.5062 42.7867 28.016 40.1741 28.6387V45.8974C40.1741 52.0082 44.6027 57.4038 49.6977 60.9587C53.8573 63.8713 58.4637 65.5465 61.4321 65.3872C65.1836 65.1755 69.4883 63.6 73.2461 61.0245C78.5906 57.3575 82.8289 51.6639 82.8289 44.9775V28.6325C80.2031 28.016 77.5702 27.5062 74.9311 27.1157Z" fill="#FFCDBE"/>
<path fill-rule="evenodd" clip-rule="evenodd" d="M62.0578 0C57.9442 0.0133443 53.613 2.13153 51.4615 6.34923H45.6824C37.3306 6.34923 32.3551 15.5773 40.1732 20.4693V33.3057C42.7867 32.6838 45.393 32.1803 47.9994 31.7835C57.0291 30.426 66.0067 30.4527 74.9311 31.7835C77.5702 32.1803 80.2022 32.6838 82.8289 33.3057V20.4693C90.648 15.5773 85.8893 6.34923 77.5375 6.34923H71.3238C70.1069 2.13153 66.243 0.0133443 62.1365 0H62.0578Z" fill="#DDEBFD"/>
<path fill-rule="evenodd" clip-rule="evenodd" d="M82.8289 20.4693C90.648 15.5773 85.8893 6.34833 77.5375 6.34833H72.6602C80.15 6.34833 84.7769 13.081 79.9987 18.1456C78.465 19.7674 77.9782 18.9267 77.9782 21.1979L77.9587 32.2861C79.5845 32.5842 81.2103 32.9222 82.8289 33.3057V20.4693Z" fill="#BED9FD"/>
<path fill-rule="evenodd" clip-rule="evenodd" d="M77.0967 65.1951C75.2931 64.3339 74.1479 62.7851 73.2461 61.0245C71.0344 62.5405 68.6263 63.7121 66.2633 64.4603C67.3492 66.5722 68.244 67.5383 71.384 69.0347C71.7592 69.2135 72.1672 69.3656 72.6009 69.4777C74.5753 68.4128 76.1551 66.9823 77.0967 65.1951Z" fill="#EBAE9D"/>
<path fill-rule="evenodd" clip-rule="evenodd" d="M99.0857 77.9389C97.4467 70.9349 91.9906 67.6513 85.1459 66.4396C83.5724 66.1612 81.9342 65.9895 80.2491 65.9103C79.0048 65.8703 77.972 65.6123 77.0959 65.1951C76.1551 66.9823 74.5753 68.4128 72.6009 69.4786C73.1868 69.637 73.8249 69.7304 74.5364 69.7499C75.4046 69.7962 76.2542 69.8558 77.0959 69.9483C77.8924 70.0346 78.6694 70.1405 79.4332 70.2793C81.4793 70.6431 83.4077 71.1929 85.1459 71.9678C89.2063 73.7942 92.2269 76.8731 93.3792 81.7847C95.0377 88.8617 95.6696 95.1113 95.6696 102.373H99.8026V90.4577C99.8026 89.1864 100.375 88.0406 101.277 87.2728L99.0857 77.9389Z" fill="#0E55B7"/>
<path fill-rule="evenodd" clip-rule="evenodd" d="M85.1459 66.4396C83.5724 66.1612 81.9342 65.9895 80.2491 65.9103C79.0048 65.8703 77.972 65.6123 77.0959 65.1951V69.9483C77.8924 70.0346 78.6694 70.1405 79.4332 70.2793C81.4793 70.6431 83.4077 71.1929 85.1459 71.9678V66.4396Z" fill="#C2C7CC"/>
<path fill-rule="evenodd" clip-rule="evenodd" d="M114.545 93.7012C114.545 89.6232 111.228 86.2871 107.174 86.2871H103.949C102.935 86.2871 102.001 86.6572 101.277 87.2728C100.375 88.0406 99.8026 89.1864 99.8026 90.4577V103.863C99.8026 106.16 101.672 108.04 103.949 108.04H107.174C111.228 108.04 114.545 104.704 114.545 100.626V93.7012Z" fill="#FFCDBE"/>
<path fill-rule="evenodd" clip-rule="evenodd" d="M110.919 32.2532H103.429C100.632 32.2532 98.3485 34.5574 98.3485 37.3641V52.8017C98.3485 55.6156 100.632 57.9126 103.429 57.9126H110.919C112.492 57.9126 113.9 57.1849 114.835 56.0462C115.559 55.1592 116 54.0339 116 52.8026V37.3641C116 36.1391 115.559 35.0075 114.835 34.1268C113.901 32.9881 112.492 32.2532 110.919 32.2532Z" fill="#DDEBFD"/>
<path fill-rule="evenodd" clip-rule="evenodd" d="M88.3965 84.1084C88.101 82.3345 86.9363 80.832 85.1459 80.832H80.4598L84.2963 102.373H91.5366L88.3965 84.1084Z" fill="#BED9FD"/>
<path fill-rule="evenodd" clip-rule="evenodd" d="M114.545 93.7012C114.545 89.6232 111.228 86.2871 107.174 86.2871H103.949C103.521 86.2871 103.107 86.3529 102.712 86.4784C105.97 87.2399 108.418 90.1988 108.418 93.7012V100.626C108.418 104.128 105.97 107.081 102.712 107.849C103.107 107.968 103.521 108.041 103.949 108.041H107.174C111.228 108.041 114.545 104.704 114.545 100.626V93.7012Z" fill="#EBAE9D"/>
<path fill-rule="evenodd" clip-rule="evenodd" d="M65.4863 80.832C65.2164 78.7734 63.4464 77.1641 61.3206 77.1641H54.252C51.7704 77.1641 51.3492 79.5144 50.8164 81.9307C50.5465 83.1352 55.9636 84.4928 55.5353 85.6181H61.3206C63.6375 85.6181 65.5261 83.7179 65.5261 81.3942C65.5261 81.2029 65.5128 81.017 65.4863 80.832Z" fill="#C769A8"/>
<path fill-rule="evenodd" clip-rule="evenodd" d="M11.2679 77.1641H4.19937C1.88861 77.1641 0 79.0705 0 81.3942C0 83.7179 1.88861 85.6181 4.19937 85.6181H9.97141L15.4532 80.3881L11.2679 77.1641Z" fill="#C769A8"/>
<path fill-rule="evenodd" clip-rule="evenodd" d="M45.9524 77.1641H11.2679C8.78638 77.1641 8.40494 79.6933 8.93772 82.1157C9.20765 83.3345 9.55634 84.499 9.97141 85.6181C12.4193 92.1658 17.3161 96.9982 23.5023 99.4411L31.5125 104.472L42.2079 99.4411C48.3215 96.9057 53.1457 91.874 55.5353 85.6181C55.9627 84.4928 56.3185 83.3211 56.5813 82.1157C57.115 79.6933 56.7397 77.1641 54.252 77.1641H45.9524Z" fill="#AA3584"/>
<path fill-rule="evenodd" clip-rule="evenodd" d="M42.2079 99.4411H15.0452C13.1433 99.4411 11.5963 101.003 11.5963 102.91V106.531C11.5963 108.438 13.1433 110 15.0452 110H51.7899C53.6856 110 55.2388 108.438 55.2388 106.531V102.91C55.2388 102.731 55.2255 102.546 55.1927 102.373C54.9361 100.719 53.5015 99.4411 51.7899 99.4411H42.2079Z" fill="#808080"/>
<path fill-rule="evenodd" clip-rule="evenodd" d="M54.252 77.1641H47.0577C49.5393 77.1641 49.9207 79.6933 49.388 82.1157C49.118 83.3211 48.7693 84.4928 48.3348 85.6181C47.8808 86.8165 47.3347 87.9614 46.709 89.061C45.5842 91.027 44.2018 92.8205 42.6026 94.396C42.4973 94.4957 42.392 94.6015 42.2867 94.7012C40.1803 96.7002 37.7191 98.3157 35.0074 99.4411H42.2079C43.4973 98.9046 44.7284 98.2623 45.8931 97.5142C50.2438 94.727 53.6458 90.5564 55.5352 85.6181C55.9627 84.4928 56.3185 83.3211 56.5813 82.1157C56.6805 81.686 56.7459 81.2554 56.7725 80.832C56.9176 78.8793 56.299 77.1641 54.252 77.1641Z" fill="#902D72"/>
<path fill-rule="evenodd" clip-rule="evenodd" d="M55.1927 102.373C54.9361 100.719 53.5015 99.4411 51.7899 99.4411H44.5894C46.3073 99.4411 47.7357 100.719 47.9994 102.373C48.0251 102.546 48.0383 102.731 48.0383 102.91V106.531C48.0383 108.438 46.4851 110 44.5894 110H51.7899C53.6856 110 55.2388 108.438 55.2388 106.531V102.91C55.2388 102.731 55.2264 102.546 55.1927 102.373Z" fill="#666666"/>
<path fill-rule="evenodd" clip-rule="evenodd" d="M114.835 34.1268C113.901 32.9881 112.492 32.2532 110.919 32.2532H104.028C106.819 32.2532 109.109 34.5574 109.109 37.3641V52.8017C109.109 55.6156 106.819 57.9126 104.028 57.9126H110.919C112.492 57.9126 113.9 57.1849 114.835 56.0462C115.559 55.1592 116 54.0339 116 52.8026V37.3641C116 36.1391 115.559 35.0075 114.835 34.1268Z" fill="#BED9FD"/>
<path fill-rule="evenodd" clip-rule="evenodd" d="M82.829 33.3057C80.2031 32.6838 77.5702 32.1803 74.9311 31.7835C74.0028 40.1904 82.3024 41.7989 82.829 41.8923V33.3057Z" fill="#808080"/>
<path fill-rule="evenodd" clip-rule="evenodd" d="M47.9994 31.7835C45.393 32.1803 42.7867 32.6838 40.1741 33.3057V41.8789C41.3123 41.6539 48.8817 39.8132 47.9994 31.7835Z" fill="#808080"/>
<path d="M61.2418 21.2495C60.2674 21.2495 59.4771 20.4551 59.4771 19.4765V11.3338C59.4771 10.3543 60.2674 9.56079 61.2418 9.56079C62.2162 9.56079 63.0056 10.3543 63.0056 11.3338V19.4765C63.0056 20.4551 62.2162 21.2495 61.2418 21.2495Z" fill="#BED9FD"/>
<path d="M49.2632 24.9236C48.2888 24.9236 47.4985 24.1292 47.4985 23.1506V15.0141C47.4985 14.0355 48.2888 13.242 49.2632 13.242C50.2376 13.242 51.027 14.0355 51.027 15.0141V23.1506C51.027 24.1292 50.2376 24.9236 49.2632 24.9236Z" fill="#BED9FD"/>
<path d="M73.2195 24.9236C72.2451 24.9236 71.4557 24.1292 71.4557 23.1506V15.0141C71.4557 14.0355 72.2451 13.242 73.2195 13.242C74.1939 13.242 74.9842 14.0355 74.9842 15.0141V23.1506C74.9842 24.1292 74.1939 24.9236 73.2195 24.9236Z" fill="#BED9FD"/>
</svg>
