<svg width="235" height="116" viewBox="0 0 235 116" fill="none" xmlns="http://www.w3.org/2000/svg">
<path d="M7 91H74V98H7V91Z" fill="#6EE213"/>
<path d="M41 91H74V98H41V91Z" fill="#41C52B"/>
<path d="M73.6333 97H7.36667C6.05964 97 5 98.0546 5 99.3554V104.223C5 110.717 10.3084 116 16.8333 116H64.1667C70.6916 116 76 110.717 76 104.223V99.3554C76 98.0546 74.9404 97 73.6333 97Z" fill="#FFDD4D"/>
<path d="M76 99.3559V104.224C76 110.716 70.7671 116 64.3333 116H41V97.0006C41.222 97.0006 73.7158 96.9971 73.8222 97.0069C75.0387 97.087 76 98.1092 76 99.3559Z" fill="#FDB334"/>
<path d="M71.5078 73H9.45928C9.44837 73 9.43729 73 9.42638 73.0002C4.2226 73.0359 0 77.2837 0 82.5C0 87.7383 4.2582 92 9.49219 92H71.541C71.5523 92 71.5635 92 71.5746 91.9998C76.7779 91.9636 81 87.716 81 82.5C81 77.2617 76.7418 73 71.5078 73Z" fill="#704F29"/>
<path d="M81 82.5C81 87.6941 76.8558 91.9584 71.6906 92H41V73H71.625C76.7938 73 81 77.2623 81 82.5Z" fill="#633E12"/>
<path d="M42 68V73.3846H37.6139C36.6291 76.0708 33.9755 78 30.8636 78C27.7518 78 25.0982 76.0708 24.1134 73.3846H7V68H42Z" fill="#FF7070"/>
<path d="M74 68V73.535H62.2143V94.8841C62.2143 98.7701 59.1057 101.934 55.2654 101.999C51.313 102.069 48.0714 98.7423 48.0714 94.7576V73.535H41V68H74Z" fill="#DC4242"/>
<path d="M49.9667 35H31.0333C16.6786 35 5 46.5764 5 60.8057V65.654C5 66.9496 6.05964 68 7.36667 68H73.6333C74.9404 68 76 66.9496 76 65.654V60.8057C76 46.5764 64.3214 35 49.9667 35Z" fill="#FFDD4D"/>
<path d="M76 60.8057V65.654C76 66.949 74.9547 68 73.6667 68H41V35H50.3333C64.4858 35 76 46.5766 76 60.8057Z" fill="#FDB334"/>
<path d="M40.5 54C41.8807 54 43 52.8807 43 51.5C43 50.1193 41.8807 49 40.5 49C39.1193 49 38 50.1193 38 51.5C38 52.8807 39.1193 54 40.5 54Z" fill="#FFF0B0"/>
<path d="M43 51.5C43 52.88 42.104 54 41 54V49C42.104 49 43 50.12 43 51.5Z" fill="#FFDD4D"/>
<path d="M59.5 54C60.8807 54 62 52.8807 62 51.5C62 50.1193 60.8807 49 59.5 49C58.1193 49 57 50.1193 57 51.5C57 52.8807 58.1193 54 59.5 54Z" fill="#FFDD4D"/>
<path d="M50.5 49C51.8807 49 53 48.1046 53 47C53 45.8954 51.8807 45 50.5 45C49.1193 45 48 45.8954 48 47C48 48.1046 49.1193 49 50.5 49Z" fill="#FFDD4D"/>
<path d="M31.5 49C32.8807 49 34 48.1046 34 47C34 45.8954 32.8807 45 31.5 45C30.1193 45 29 45.8954 29 47C29 48.1046 30.1193 49 31.5 49Z" fill="#FFF0B0"/>
<path d="M21.5 54C22.8807 54 24 52.8807 24 51.5C24 50.1193 22.8807 49 21.5 49C20.1193 49 19 50.1193 19 51.5C19 52.8807 20.1193 54 21.5 54Z" fill="#FFF0B0"/>
<path d="M25 29V37H56V29H25Z" fill="#FF9F00"/>
<path d="M41 29H56V37H41V29Z" fill="#FF7816"/>
<path d="M57 16.5072L54.6648 21H27.3352L25 16.5072C28.4306 11.8151 34.3983 9 41 9C47.6017 9 53.5694 11.8151 57 16.5072Z" fill="#0B6BEF"/>
<path d="M57 16.5072L54.6648 21H41V9C47.6017 9 53.5694 11.8151 57 16.5072Z" fill="#0E55B7"/>
<path d="M62 13.5546L56.6715 32H25.3285L20 13.5546L23.5903 12.1626C25.2146 15.3238 28.3203 17.1798 30.8562 17.4989H32.338C35.6148 16.977 38.0649 11.8726 39.0626 7H42.9378C43.9351 11.8726 46.3856 16.977 49.662 17.4989H51.1438C53.6797 17.1798 56.7854 15.3238 58.4097 12.1626L62 13.5546Z" fill="#FDBF00"/>
<path d="M62 13.5546L56.6715 32H41V7H42.9374C43.9351 11.8726 46.3852 16.977 49.662 17.4989H51.1438C53.6797 17.1798 56.7854 15.3238 58.4097 12.1626L62 13.5546Z" fill="#FF9F00"/>
<path d="M20.5495 15C18.0955 15 16 12.9812 16 10.5C16 8.01875 18.0955 6 20.5495 6C23.0034 6 25 8.01875 25 10.5C25 12.9812 23.0034 15 20.5495 15Z" fill="#FF9F00"/>
<path d="M60.4505 15C57.9966 15 56 12.9812 56 10.5C56 8.01875 57.9966 6 60.4505 6C62.9045 6 65 8.01875 65 10.5C65 12.9812 62.9045 15 60.4505 15Z" fill="#FF7816"/>
<path d="M40.5 0C38.0098 0 36 2.00977 36 4.5C36 6.98984 38.0098 9 40.5 9C42.9902 9 45 6.98984 45 4.5C45 2.00977 42.9902 0 40.5 0Z" fill="#FF9F00"/>
<path d="M41 17L36 22L41 27L46 22L41 17Z" fill="#0B6BEF"/>
<path d="M49 23L51 25L49 27L47 25L49 23Z" fill="#0E55B7"/>
<path d="M32 23L34 25L32 27L30 25L32 23Z" fill="#0B6BEF"/>
<path d="M41 9V0C43.2135 0 45 2.00977 45 4.5C45 6.98984 43.2135 9 41 9Z" fill="#FF7816"/>
<path d="M46 22L41 27V17L46 22Z" fill="#0E55B7"/>
<path d="M115.77 47.8928C117.055 44.3893 117.697 41.5568 117.697 39.3951C117.697 36.811 116.795 35.1462 114.991 34.4008C112.767 33.5312 110.69 33.0963 108.763 33.0963C107.799 33.0963 106.859 33.2081 105.945 33.4318C105.97 34.0281 105.982 34.6244 105.982 35.2208C105.982 38.103 105.599 41.1468 104.833 44.3521C105.179 44.3272 105.512 44.3148 105.834 44.3148C109.689 44.3148 113.001 45.5075 115.77 47.8928ZM106.501 11.8148C105.389 13.728 104.833 16.337 104.833 19.6416C104.833 20.2131 104.845 20.797 104.87 21.3933L105.166 24.8595L105.463 28.3257C106.155 28.2263 107.131 27.8784 108.392 27.2821C109.776 26.6609 111.098 25.9155 112.359 25.0459C115.695 22.8096 117.364 20.6976 117.364 18.7099C117.364 16.5482 116.301 14.871 114.175 13.6783C112.594 12.8087 110.468 12.2248 107.799 11.9266L106.501 11.8148ZM115.288 28.2511C121.318 29.1705 124.544 31.208 124.964 34.3635V34.8108C124.964 38.6124 122.431 45.2466 117.364 54.7133C112.569 51.7317 107.514 50.2408 102.2 50.2408C97.3313 50.2408 92.2645 51.4832 87 53.9679C90.658 49.2221 94.4025 46.228 98.2335 44.9857L96.8246 27.543C96.7258 26.8224 96.6764 26.0522 96.6764 25.2322C96.6764 24.1141 96.7752 22.9214 96.9729 21.6542C97.665 17.2563 99.494 13.9268 102.46 11.6657H100.273L99.6794 11.703C98.6166 11.6781 97.6032 11.5539 96.6393 11.3303C95.2799 11.0321 94.0564 10.5227 92.9689 9.80218C90.0524 7.86411 88.4459 4.63398 88.1493 0.111812V0C89.2121 2.03746 90.9422 3.52829 93.3397 4.47248C94.2295 4.82034 95.2799 5.05638 96.491 5.18062C97.2572 5.25516 98.3323 5.29243 99.7164 5.29243C100.705 5.29243 102.139 5.26758 104.017 5.21789L106.167 5.14335L108.355 5.10608C111.741 5.10608 114.571 5.44151 116.845 6.11239C119.736 6.93234 121.627 8.27408 122.517 10.1376C123.11 11.3054 123.407 12.6099 123.407 14.051C123.407 14.2747 123.394 14.4983 123.37 14.7219C123.296 16.3618 122.888 17.8899 122.146 19.3062C121.38 20.8219 120.243 22.5363 118.735 24.4495C117.5 25.9652 116.35 27.2324 115.288 28.2511Z" fill="#373737"/>
<path d="M148.135 41.7058C148.135 42.4761 148.271 43.1967 148.543 43.8675C148.766 44.4142 149.074 44.9111 149.47 45.3584C149.915 45.8802 150.36 46.2653 150.805 46.5138L145.318 50.6135H145.281L145.169 50.539L145.021 50.4645L144.799 50.3526C144.626 50.2284 144.453 50.1042 144.28 49.9799C144.057 49.806 143.835 49.6321 143.612 49.4581C143.093 49.0109 142.661 48.514 142.315 47.9673C141.894 47.2716 141.61 46.5386 141.462 45.7683L134.826 50.7253C132.675 49.8805 131.094 48.6506 130.08 47.0356C129.289 45.7435 128.894 44.2651 128.894 42.6003V26.6485C128.894 26.0522 128.758 25.4807 128.486 24.9341C128.264 24.462 127.955 24.0271 127.559 23.6296C127.114 23.1575 126.669 22.7848 126.224 22.5115L131.711 18.4117C132.502 18.8589 133.194 19.505 133.788 20.3498C134.257 21.0206 134.653 21.8033 134.974 22.6978C135.345 23.7166 135.579 24.6483 135.678 25.4931V42.7122C135.678 43.7557 136.383 44.6875 137.792 45.5075L141.388 42.8612V27.3194C141.388 26.5491 141.239 25.8286 140.943 25.1577C140.72 24.611 140.424 24.1141 140.053 23.6669C139.583 23.1451 139.126 22.7599 138.681 22.5115L144.205 18.4117H144.242L144.28 18.449L144.354 18.4862L144.539 18.5981L144.799 18.7471C145.021 18.8962 145.231 19.0453 145.429 19.1944C145.701 19.3932 145.948 19.5919 146.17 19.7907C146.739 20.3622 147.196 20.9834 147.542 21.6542C147.962 22.4742 148.172 23.3563 148.172 24.3005C148.172 25.3689 148.16 31.1707 148.135 41.7058Z" fill="#373737"/>
<path d="M167.71 18.4117C169.91 19.2813 171.504 20.5361 172.493 22.176L166.895 26.3503C166.845 25.3316 166.141 24.4247 164.782 23.6296L161.185 26.2758V41.7431C161.185 42.5134 161.321 43.2464 161.593 43.9421C161.816 44.4887 162.125 44.9857 162.52 45.4329C162.965 45.9795 163.41 46.3771 163.855 46.6256L158.331 50.7253L158.294 50.6881H158.257L158.182 50.6508L157.997 50.539L157.737 50.3899C157.515 50.2408 157.305 50.0917 157.107 49.9427C156.86 49.7439 156.613 49.5327 156.366 49.3091C155.797 48.7624 155.352 48.1537 155.031 47.4828C154.611 46.6628 154.401 45.7808 154.401 44.8366V27.4312C154.401 26.0149 153.956 24.7974 153.066 23.7787C152.621 23.2569 152.176 22.8718 151.731 22.6233L157.218 18.5235H157.256L157.367 18.5981L157.515 18.6726L157.737 18.7844C157.91 18.9086 158.096 19.0329 158.294 19.1571C158.516 19.331 158.726 19.505 158.924 19.6789C159.443 20.1261 159.875 20.6231 160.221 21.1697C160.666 21.8406 160.951 22.5612 161.074 23.3314L167.71 18.4117Z" fill="#373737"/>
<path d="M184.208 42.8612V31.0464C184.184 29.3568 184.171 27.9406 184.171 26.7976C184.171 25.8783 183.974 25.021 183.578 24.2259C183.232 23.8035 182.738 23.406 182.095 23.0333C179.722 24.8471 178.536 26.7727 178.536 28.8102V42.6003C178.536 43.6688 179.253 44.6254 180.686 45.4702L184.208 42.8612ZM191.03 24.9341C191.03 25.0334 191.042 29.8289 191.067 39.3205C191.092 48.8121 191.104 53.6822 191.104 53.9306C191.104 56.8377 189.77 59.4964 187.1 61.9065C184.826 63.9688 182.54 65 180.241 65C179.846 65 179.463 64.9752 179.092 64.9255C177.14 64.6273 175.484 63.6583 174.124 62.0184C173.21 60.9002 172.753 59.7821 172.753 58.664C172.753 57.9186 172.95 57.1732 173.346 56.4278C173.988 55.1854 174.965 54.5642 176.275 54.5642H176.497C176.843 54.5642 177.189 54.6139 177.535 54.7133C177.659 54.763 177.782 54.8127 177.906 54.8624L178.017 54.8997H178.054C177.164 55.496 176.67 56.2166 176.571 57.0614V57.3223C176.571 57.9931 176.818 58.577 177.313 59.074C177.856 59.6206 178.524 59.8939 179.315 59.8939H179.5C180.489 59.8442 181.428 59.3597 182.318 58.4404C183.578 57.1483 184.208 55.6202 184.208 53.8561V45.9174L177.683 50.7626C174.322 49.4209 172.369 47.2095 171.826 44.1284H171.789C171.69 43.6315 171.628 43.0476 171.603 42.3767H171.64V29.2575C171.64 27.9157 172.332 26.4994 173.716 25.0086C174.853 23.7911 176.398 22.5612 178.351 21.3188C180.6 19.9025 182.849 18.7223 185.098 17.7781C185.494 17.9272 185.889 18.1135 186.285 18.3372C189.127 19.8031 190.709 22.0021 191.03 24.9341Z" fill="#373737"/>
<path d="M201.744 22.7724C200.632 24.6856 200.076 27.1951 200.076 30.301C200.076 31.6428 200.187 33.1088 200.41 34.699L206.787 29.7792L201.744 22.7724ZM200.892 37.457C201.139 38.3266 201.46 39.159 201.856 39.9541C202.449 41.0474 203.153 41.9792 203.969 42.7494C205.724 44.3645 207.936 45.172 210.605 45.172C211.446 45.172 212.335 45.0851 213.275 44.9111L205.711 50.7253C205.39 50.7005 205.056 50.6632 204.71 50.6135C204.266 50.539 203.821 50.4396 203.376 50.3154C202.189 49.9675 201.102 49.4457 200.113 48.75C197.296 46.7622 195.504 43.5197 194.737 39.0224C194.49 37.6806 194.367 36.3016 194.367 34.8853C194.367 33.2206 194.54 31.5185 194.886 29.7792C196.171 23.319 199.742 19.3186 205.6 17.7781L213.015 28.1021L212.83 28.2511L200.892 37.457Z" fill="#373737"/>
<path d="M230.217 18.4117C232.417 19.2813 234.011 20.5361 235 22.176L229.402 26.3503C229.352 25.3316 228.648 24.4247 227.289 23.6296L223.692 26.2758V41.7431C223.692 42.5134 223.828 43.2464 224.1 43.9421C224.323 44.4887 224.632 44.9857 225.027 45.4329C225.472 45.9795 225.917 46.3771 226.362 46.6256L220.838 50.7253L220.801 50.6881H220.764L220.689 50.6508L220.504 50.539L220.244 50.3899C220.022 50.2408 219.812 50.0917 219.614 49.9427C219.367 49.7439 219.12 49.5327 218.873 49.3091C218.304 48.7624 217.859 48.1537 217.538 47.4828C217.118 46.6628 216.908 45.7808 216.908 44.8366V27.4312C216.908 26.0149 216.463 24.7974 215.573 23.7787C215.128 23.2569 214.683 22.8718 214.238 22.6233L219.725 18.5235H219.763L219.874 18.5981L220.022 18.6726L220.244 18.7844C220.417 18.9086 220.603 19.0329 220.801 19.1571C221.023 19.331 221.233 19.505 221.431 19.6789C221.95 20.1261 222.382 20.6231 222.728 21.1697C223.173 21.8406 223.458 22.5612 223.581 23.3314L230.217 18.4117Z" fill="#373737"/>
<path d="M129.385 93.9347C129.73 92.3769 129.903 90.8561 129.903 89.3724C129.903 86.5534 129.274 83.8952 128.017 81.3976C125.675 76.6746 121.484 72.9159 115.445 70.1217C114.902 69.8744 114.077 69.6518 112.967 69.454C112.499 69.4045 112.043 69.3798 111.599 69.3798C109.874 69.3798 108.123 69.7013 106.349 70.3442C104.869 70.8882 103.575 71.7661 102.466 72.9777C101.381 74.1894 100.63 75.5618 100.21 77.095C99.7667 78.7023 99.5449 80.2725 99.5449 81.8056C99.5449 82.8689 99.6558 83.9199 99.8777 84.9585C100.346 87.2334 101.418 89.6815 103.095 92.3027C106.595 97.8417 112.302 102.058 120.215 104.951L124.652 101.724C127.092 99.5232 128.67 96.9268 129.385 93.9347ZM123.432 106.323C124.615 106.769 125.848 106.991 127.129 106.991H127.351C128.682 106.966 130.605 106.249 133.12 104.84C132.306 106.299 131.185 107.745 129.755 109.18C127.117 111.727 124.368 113 121.509 113C121.213 113 120.93 112.988 120.659 112.963C117.873 112.74 114.397 111.628 110.231 109.625C106.065 107.646 102.688 105.384 100.1 102.837C97.1907 99.9683 95.1816 96.7908 94.0723 93.3042C93.3574 90.9797 93 88.816 93 86.8131C93 86.3185 93.0247 85.8239 93.074 85.3294C93.3205 82.8566 94.1586 80.2972 95.5884 77.6513C96.8702 75.2774 98.9656 72.7552 101.874 70.0846C102.959 69.0954 104.783 67.7107 107.347 65.9303C109.935 64.1499 111.513 63.1855 112.08 63.0371C112.203 63.0124 112.388 63 112.635 63C113.522 63 115.198 63.2102 117.663 63.6306C120.745 64.1499 123.752 65.3615 126.686 67.2656C130.802 69.9609 133.6 73.2868 135.079 77.2433C135.893 79.4441 136.324 81.6696 136.374 83.9199V84.3279C136.374 86.5781 135.991 88.68 135.227 90.6335C133.181 96.2468 130.593 100.401 127.462 103.096L123.432 106.323Z" fill="#373737"/>
<path d="M159.262 98.868C159.262 99.6345 159.398 100.352 159.669 101.019C159.891 101.563 160.199 102.058 160.593 102.503C161.037 103.022 161.481 103.406 161.924 103.653L156.452 107.733H156.415L156.304 107.659L156.156 107.585L155.934 107.473C155.762 107.35 155.589 107.226 155.417 107.102C155.195 106.929 154.973 106.756 154.751 106.583C154.233 106.138 153.802 105.643 153.457 105.099C153.038 104.407 152.754 103.678 152.606 102.911L145.987 107.844C143.843 107.003 142.265 105.779 141.254 104.172C140.466 102.886 140.071 101.415 140.071 99.7582V83.8828C140.071 83.2893 139.936 82.7206 139.664 82.1766C139.443 81.7067 139.134 81.274 138.74 80.8783C138.296 80.4085 137.853 80.0376 137.409 79.7656L142.881 75.6855C143.67 76.1306 144.361 76.7735 144.952 77.6142C145.421 78.2819 145.815 79.0608 146.135 79.951C146.505 80.9649 146.739 81.8922 146.838 82.7329V99.8694C146.838 100.908 147.541 101.835 148.946 102.651L152.532 100.018V84.5504C152.532 83.7839 152.384 83.0668 152.089 82.3991C151.867 81.8551 151.571 81.3605 151.201 80.9154C150.733 80.3961 150.277 80.0129 149.833 79.7656L155.343 75.6855H155.38L155.417 75.7226L155.49 75.7596L155.675 75.8709L155.934 76.0193C156.156 76.1677 156.366 76.316 156.563 76.4644C156.834 76.6622 157.08 76.86 157.302 77.0579C157.869 77.6266 158.325 78.2448 158.67 78.9125C159.09 79.7285 159.299 80.6063 159.299 81.546C159.299 82.6093 159.287 88.3833 159.262 98.868Z" fill="#373737"/>
<path d="M171.021 80.0252C169.911 81.9293 169.357 84.4268 169.357 87.5178C169.357 88.8531 169.468 90.3121 169.69 91.8947L176.049 86.9985L171.021 80.0252ZM170.17 94.6395C170.417 95.5049 170.737 96.3333 171.132 97.1246C171.723 98.2127 172.426 99.14 173.239 99.9065C174.989 101.514 177.196 102.318 179.858 102.318C180.696 102.318 181.584 102.231 182.52 102.058L174.977 107.844C174.657 107.819 174.324 107.782 173.979 107.733C173.535 107.659 173.091 107.56 172.648 107.436C171.464 107.09 170.38 106.571 169.394 105.878C166.583 103.9 164.796 100.673 164.032 96.1973C163.786 94.862 163.662 93.4896 163.662 92.0801C163.662 90.4233 163.835 88.7295 164.18 86.9985C165.462 80.5692 169.024 76.588 174.866 75.0549L182.262 85.3294L182.077 85.4777L170.17 94.6395Z" fill="#373737"/>
<path d="M192.023 80.0252C190.914 81.9293 190.359 84.4268 190.359 87.5178C190.359 88.8531 190.47 90.3121 190.692 91.8947L197.052 86.9985L192.023 80.0252ZM191.173 94.6395C191.419 95.5049 191.74 96.3333 192.134 97.1246C192.726 98.2127 193.428 99.14 194.242 99.9065C195.992 101.514 198.198 102.318 200.861 102.318C201.699 102.318 202.586 102.231 203.523 102.058L195.98 107.844C195.659 107.819 195.327 107.782 194.982 107.733C194.538 107.659 194.094 107.56 193.65 107.436C192.467 107.09 191.382 106.571 190.396 105.878C187.586 103.9 185.799 100.673 185.035 96.1973C184.788 94.862 184.665 93.4896 184.665 92.0801C184.665 90.4233 184.838 88.7295 185.183 86.9985C186.465 80.5692 190.027 76.588 195.869 75.0549L203.264 85.3294L203.079 85.4777L191.173 94.6395Z" fill="#373737"/>
<path d="M213.877 98.9792C213.877 101.106 214.764 102.701 216.539 103.764L211.066 107.844L211.029 107.807H210.992C208.429 105.878 207.147 103.443 207.147 100.5V84.6617C207.147 83.2522 206.703 82.0406 205.816 81.0267C205.372 80.5074 204.928 80.1241 204.485 79.8769L209.957 75.7967H209.994L210.105 75.8709L210.253 75.9451L210.475 76.0564C210.647 76.18 210.832 76.3037 211.029 76.4273C211.251 76.6004 211.461 76.7735 211.658 76.9466C212.176 77.3917 212.607 77.8863 212.952 78.4303C213.396 79.0979 213.704 79.815 213.877 80.5816L220.421 75.6855C222.591 76.5262 224.168 77.7502 225.154 79.3576C225.943 80.6434 226.338 82.1147 226.338 83.7715V98.9792C226.338 101.106 227.225 102.701 229 103.764L223.527 107.844L223.49 107.807H223.454C220.89 105.878 219.608 103.443 219.608 100.5V83.6973C219.608 82.6588 218.905 81.7191 217.5 80.8783L213.877 83.5119V98.9792Z" fill="#373737"/>
</svg>
