<svg width="104" height="110" viewBox="0 0 104 110" fill="none" xmlns="http://www.w3.org/2000/svg">
<path d="M84.062 49.6481C83.1449 49.6481 82.4016 48.9049 82.4016 47.9882V32.4314C82.4016 31.5146 83.1449 30.7715 84.062 30.7715C84.979 30.7715 85.7224 31.5146 85.7224 32.4314V47.9882C85.7224 48.9049 84.979 49.6481 84.062 49.6481Z" fill="#75CFF9"/>
<path d="M84.062 34.3186C79.5822 34.3186 75.9504 30.6881 75.9504 26.2095V15.3094C75.9504 14.9337 76.2551 14.629 76.631 14.629H91.4929C91.8688 14.629 92.1735 14.9337 92.1735 15.3094V26.2095C92.1735 30.6879 88.542 34.3186 84.062 34.3186Z" fill="#75CFF9"/>
<path d="M91.4929 14.629H86.7391C87.115 14.629 87.4197 14.9337 87.4197 15.3094V26.2095C87.4197 29.861 85.0054 32.9483 81.6855 33.9641C82.4372 34.1942 83.235 34.3186 84.0622 34.3186C88.542 34.3186 92.1737 30.6881 92.1737 26.2095V15.3094C92.1735 14.9337 91.8688 14.629 91.4929 14.629Z" fill="#5FA7EE"/>
<path d="M75.9504 24.1724V26.2096C75.9504 30.688 79.582 34.3186 84.062 34.3186C88.5418 34.3186 92.1735 30.6882 92.1735 26.2096V24.1724H75.9504Z" fill="#744C9E"/>
<path d="M87.4197 24.1724V26.2096C87.4197 29.861 85.0052 32.9484 81.6855 33.9641C82.4779 34.2065 83.2902 34.3184 84.0598 34.3186H84.0622C87.1487 34.3186 89.8323 32.5949 91.2032 30.0583C91.8221 28.9132 92.1737 27.6026 92.1737 26.2096V24.1724H87.4197Z" fill="#644187"/>
<path d="M75.8406 52.9971V57.3313C75.8406 58.433 76.4221 59.3966 77.2932 59.9395L71.0672 77.1077L78.9297 79.9571L86.0198 60.4059H88.433C91.206 60.4059 93.4537 58.1587 93.4537 55.3868V52.9971H75.8406Z" fill="#FFCDBE"/>
<path d="M103.025 46.1011H65.0992C64.5606 46.1011 64.1241 46.5376 64.1241 47.0758V49.0885C64.1241 51.2472 65.8746 52.9971 68.034 52.9971H100.09C102.25 52.9971 104 51.2472 104 49.0885V47.0758C104 46.5374 103.563 46.1011 103.025 46.1011Z" fill="#AA3584"/>
<path d="M103.025 46.1011H97.713C98.2516 46.1011 98.6881 46.5376 98.6881 47.0758V49.0885C98.6881 51.247 96.9376 52.9971 94.7782 52.9971H100.09C102.249 52.9971 104 51.2472 104 49.0885V47.0758C104 46.5374 103.563 46.1011 103.025 46.1011Z" fill="#902D72"/>
<path d="M72.6365 65.2163L66.6483 81.7287L62.5811 69.7486C60.8046 64.5161 56.8221 60.3258 51.6858 58.2846L42.461 54.6187V41.9131H29.7212V54.6187C16.3714 54.6187 6.47631 73.9024 1.4573 81.9743C0.545011 83.4415 0 85.105 0 86.8323C0 91.7078 3.95348 95.66 8.83043 95.66H15.8404V103.461H56.3416V90.1992L58.9792 97.1934C60.4518 101.099 64.4699 103.429 68.5919 102.767C71.4784 102.767 74.0558 100.961 75.0394 98.2478L85.3476 69.823C85.556 69.2485 85.2588 68.6136 84.6841 68.4054L74.054 64.5529C73.4798 64.3447 72.845 64.6416 72.6365 65.2163Z" fill="#DDEBFD"/>
<path d="M81.2552 67.1625L70.4992 96.8225C69.4855 99.6182 66.8292 101.48 63.8544 101.48C63.4433 101.546 63.0335 101.582 62.6269 101.592C64.3638 102.651 66.4636 103.109 68.5923 102.767C71.4788 102.767 74.0562 100.961 75.0398 98.2478L85.348 69.8229C85.5564 69.2484 85.2592 68.6135 84.6846 68.4053L81.2552 67.1625Z" fill="#BED9FD"/>
<path d="M27.5261 56.4661C33.2369 62.254 38.947 62.254 44.6565 56.4661V55.4909L42.4612 54.6185V41.9128H29.7214V54.6185C28.9786 54.6185 28.2473 54.6814 27.5261 54.7955V56.4661Z" fill="#FFCDBE"/>
<path d="M29.7214 41.9128V50.4325C32.238 52.3347 35.4515 53.8661 37.6081 53.8661C38.9556 53.8661 40.7159 53.2669 42.4612 52.3545V41.9128H29.7214Z" fill="#EBAE9D"/>
<path d="M56.3427 86.6437V108.866C56.3427 109.492 55.8349 110 55.2084 110H16.9755C16.349 110 15.8412 109.492 15.8412 108.866V86.6437L19.1581 84.1126C22.5069 81.5588 24.1561 77.3562 23.4346 73.2078L20.7167 57.5356C23.1692 55.9503 25.7941 54.8956 28.5755 54.6688L35.0565 71.4053C35.4221 72.3491 36.7582 72.3478 37.122 71.4034L43.4358 55.0067L51.3583 58.1548L48.7469 73.2078C48.0276 77.356 49.677 81.5588 53.0234 84.1126L56.3427 86.6437Z" fill="#26447E"/>
<path d="M15.8412 87.9716C15.1077 87.9716 14.5129 87.3769 14.5129 86.6437V76.467C14.5129 75.7337 15.1077 75.139 15.8412 75.139C16.5747 75.139 17.1696 75.7337 17.1696 76.467V86.6437C17.1696 87.3772 16.5747 87.9716 15.8412 87.9716Z" fill="#BED9FD"/>
<path d="M42.0886 84.0004H40.3042V82.2389C40.3042 81.2663 39.5155 80.4778 38.5426 80.4778H35.6063C34.5652 80.4778 33.7213 81.3215 33.7213 82.3622V95.2004H42.0888C44.8848 95.2004 47.1514 92.9344 47.1514 90.1393V89.0614C47.1512 86.2663 44.8846 84.0004 42.0886 84.0004Z" fill="#FFCDBE"/>
<path d="M10.2443 110H33.2674C33.518 110 33.7211 109.797 33.7211 109.546V82.8775H14.4308C11.868 82.8775 9.79044 84.9544 9.79044 87.5164V109.546C9.79044 109.797 9.99374 110 10.2443 110Z" fill="#0B6BEF"/>
<path d="M25.5373 98.9194C24.8039 98.9194 24.209 99.5141 24.209 100.247V110H26.8657V100.247C26.8657 99.5141 26.271 98.9194 25.5373 98.9194Z" fill="#0E55B7"/>
<path d="M17.9742 103.796C17.2407 103.796 16.6458 104.39 16.6458 105.124V110H19.3026V105.124C19.3026 104.39 18.7079 103.796 17.9742 103.796Z" fill="#0E55B7"/>
<path d="M57.8793 17.1822C57.3811 13.552 53.1401 11.4319 51.1045 11.0504C48.2937 6.6521 38.6743 0.37631 29.8011 0.000548365C29.333 -0.0192172 29.0365 0.499415 29.2817 0.898379C30.7226 3.24168 31.198 4.29742 31.4793 5.00533C31.6665 5.47648 31.2105 5.94505 30.7327 5.7749C26.4116 4.23619 19.2591 2.91533 12.9068 5.15185C12.514 5.29021 12.3846 5.78328 12.6582 6.09738C15.1593 8.96812 18.0243 11.5591 18.0243 11.5591C18.0243 11.5591 10.5177 22.2433 19.4238 33.436L53.0127 34.3813C53.0129 34.3815 58.5511 22.0785 57.8793 17.1822Z" fill="#26447E"/>
<path d="M57.8793 17.1822C57.3811 13.552 53.1401 11.4319 51.1045 11.0504C48.2937 6.65211 38.6743 0.376315 29.8011 0.000553901C29.3859 -0.0170633 29.1078 0.388776 29.2209 0.759166C36.4781 2.62186 43.3073 7.46078 45.6013 11.0504C47.6369 11.4319 51.8779 13.552 52.3761 17.1822C53.0041 21.7588 48.2068 32.8056 47.5778 34.2286L53.0129 34.3815C53.0129 34.3815 58.5511 22.0785 57.8793 17.1822Z" fill="#20396B"/>
<path d="M52.2751 37.3898H44.0011V29.2586H52.2751C54.5211 29.2586 56.3421 31.0788 56.3421 33.3243C56.3421 35.5698 54.5211 37.3898 52.2751 37.3898Z" fill="#EBAE9D"/>
<path d="M19.9075 37.3898H28.1816V29.2586H19.9075C17.6615 29.2586 15.8406 31.0788 15.8406 33.3243C15.8406 35.5698 17.6615 37.3898 19.9075 37.3898Z" fill="#EBAE9D"/>
<path d="M47.4304 41.7513C45.8364 44.8564 39.5797 48.8626 36.0905 48.8626C32.6035 48.8626 26.3445 44.8567 24.7527 41.7513C23.5483 39.4074 23.3955 32.128 23.6081 26.0834C29.8669 25.0831 35.8025 22.1039 40.3566 17.6996H45.4066C46.8766 17.6996 48.1054 18.8196 48.2337 20.2824C48.7588 26.1876 49.071 38.5577 47.4304 41.7513Z" fill="#FFCDBE"/>
<path d="M57.671 75.139C56.9376 75.139 56.3427 75.7337 56.3427 76.467V90.2011C56.3427 90.2011 58.9929 97.2262 58.9994 97.243V76.4668C58.9994 75.7337 58.4047 75.139 57.671 75.139Z" fill="#BED9FD"/>
<path d="M63.6653 85.9748C63.8149 86.0292 63.9677 86.0547 64.1179 86.0547C64.6612 86.0547 65.171 85.7191 65.3668 85.179L66.6334 81.6861L65.267 77.6614L62.8691 84.2739C62.6194 84.9633 62.9757 85.7249 63.6653 85.9748Z" fill="#BED9FD"/>
</svg>
